<svg width="22" height="22" viewBox="0 0 22 22" fill="none" xmlns="http://www.w3.org/2000/svg">
<path fill-rule="evenodd" clip-rule="evenodd" d="M5.62217 9.04443C7.51221 9.04443 9.04438 7.51225 9.04438 5.62221C9.04438 3.73218 7.51221 2.2 5.62217 2.2C3.73213 2.2 2.19995 3.73218 2.19995 5.62221C2.19995 7.51225 3.73213 9.04443 5.62217 9.04443ZM5.62217 19.8C7.51221 19.8 9.04438 18.2678 9.04438 16.3778C9.04438 14.4877 7.51221 12.9555 5.62217 12.9555C3.73213 12.9555 2.19995 14.4877 2.19995 16.3778C2.19995 18.2678 3.73213 19.8 5.62217 19.8ZM19.8 5.62221C19.8 7.51225 18.2678 9.04443 16.3777 9.04443C14.4877 9.04443 12.9555 7.51225 12.9555 5.62221C12.9555 3.73218 14.4877 2.2 16.3777 2.2C18.2678 2.2 19.8 3.73218 19.8 5.62221ZM16.3777 19.8C18.2678 19.8 19.8 18.2678 19.8 16.3778C19.8 14.4877 18.2678 12.9555 16.3777 12.9555C14.4877 12.9555 12.9555 14.4877 12.9555 16.3778C12.9555 18.2678 14.4877 19.8 16.3777 19.8Z" fill="#1A1926"/>
</svg>
