<svg width="22" height="22" viewBox="0 0 22 22" fill="none" xmlns="http://www.w3.org/2000/svg">
<path fill-rule="evenodd" clip-rule="evenodd" d="M16.9022 8.18149C16.9022 9.28668 17.1944 9.93721 17.8372 10.6879C18.3243 11.2409 18.48 11.9517 18.48 12.721C18.48 13.4912 18.2264 14.2206 17.72 14.8135C17.0579 15.5243 16.123 15.9781 15.1688 16.057C13.7852 16.1748 12.4024 16.2741 11.0005 16.2741C9.5976 16.2741 8.21486 16.2147 6.83212 16.057C5.87706 15.9781 4.94212 15.5243 4.28005 14.8135C3.77278 14.2206 3.52002 13.4912 3.52002 12.721C3.52002 11.9517 3.6757 11.2409 4.16285 10.6879C4.82492 9.93721 5.09779 9.28668 5.09779 8.18149V7.80571C5.09779 6.32563 5.46775 5.35781 6.22778 4.41126C7.35776 3.02867 9.16905 2.2 10.9611 2.2H11.0389C12.8695 2.2 14.7394 3.06855 15.8501 4.50964C16.5708 5.43757 16.9022 6.36551 16.9022 7.80571V8.18149ZM9.2072 17.361C9.64712 17.267 12.3278 17.267 12.7677 17.361C13.1438 17.4478 13.5505 17.6499 13.5505 18.093C13.5286 18.5158 13.2811 18.8889 12.9382 19.1255L12.9391 19.1264C12.4957 19.4721 11.9753 19.6919 11.4313 19.7707C11.1304 19.8089 10.8348 19.8106 10.5445 19.7707C9.99958 19.6919 9.4792 19.4721 9.03578 19.1264L9.03665 19.1255C8.69381 18.8889 8.4463 18.5158 8.42443 18.093C8.42443 17.6499 8.83112 17.4478 9.2072 17.361Z" fill="white"/>
<path d="M17.8372 10.6879C17.1944 9.93721 16.9022 9.28668 16.9022 8.18149V7.80571C16.9022 6.36551 16.5708 5.43757 15.8501 4.50964C14.7394 3.06855 12.8695 2.2 11.0389 2.2H10.9611C9.16905 2.2 7.35776 3.02867 6.22778 4.41126C5.46775 5.35781 5.09779 6.32563 5.09779 7.80571V8.18149C5.09779 9.28668 4.82492 9.93721 4.16285 10.6879C3.6757 11.2409 3.52002 11.9517 3.52002 12.721C3.52002 13.4912 3.77278 14.2206 4.28005 14.8135C4.94212 15.5243 5.87706 15.9781 6.83212 16.057C8.21486 16.2147 9.5976 16.2741 11.0005 16.2741C12.4024 16.2741 13.7852 16.1748 15.1688 16.057C16.123 15.9781 17.0579 15.5243 17.72 14.8135C18.2264 14.2206 18.48 13.4912 18.48 12.721C18.48 11.9517 18.3243 11.2409 17.8372 10.6879Z" fill="#1A1926"/>
<path opacity="0.4" d="M12.7677 17.361C12.3278 17.267 9.64713 17.267 9.2072 17.361C8.83113 17.4478 8.42444 17.6499 8.42444 18.093C8.4463 18.5158 8.69381 18.8889 9.03666 19.1255L9.03578 19.1264C9.4792 19.4721 9.99959 19.6919 10.5445 19.7707C10.8348 19.8106 11.1304 19.8089 11.4313 19.7707C11.9753 19.6919 12.4957 19.4721 12.9391 19.1264L12.9382 19.1255C13.2811 18.8889 13.5286 18.5158 13.5505 18.093C13.5505 17.6499 13.1438 17.4478 12.7677 17.361Z" fill="#1A1926"/>
</svg>
