<svg width="22" height="22" viewBox="0 0 22 22" fill="none" xmlns="http://www.w3.org/2000/svg">
<path fill-rule="evenodd" clip-rule="evenodd" d="M10.3536 3.85C6.76133 3.85 3.84995 6.76137 3.84995 10.3537C3.84995 13.946 6.76133 16.8573 10.3536 16.8573C12.0776 16.8573 13.6436 16.1876 14.8082 15.0924C16.0706 13.9051 16.8573 12.222 16.8573 10.3537C16.8573 6.76143 13.9452 3.85 10.3536 3.85ZM2.19995 10.3537C2.19995 5.8501 5.85006 2.2 10.3536 2.2C14.8563 2.2 18.5073 5.85004 18.5073 10.3537C18.5073 12.3985 17.7538 14.2681 16.5111 15.6987L19.0613 18.4097C19.3735 18.7416 19.3576 19.2637 19.0257 19.5759C18.6938 19.8881 18.1717 19.8721 17.8595 19.5403L15.3091 16.8291C13.9359 17.8813 12.2171 18.5073 10.3536 18.5073C5.85006 18.5073 2.19995 14.8572 2.19995 10.3537Z" fill="#1A1926"/>
<path d="M6.97047 12.1C6.73291 11.5999 6.59998 11.0405 6.59998 10.45C6.59998 9.04952 7.34775 7.82369 8.4658 7.14999" stroke="white" stroke-width="1.5" stroke-linecap="round"/>
<path opacity="0.4" d="M6.97047 12.1C6.73291 11.5999 6.59998 11.0405 6.59998 10.45C6.59998 9.04952 7.34775 7.82369 8.4658 7.14999" stroke="#1A1926" stroke-width="1.5" stroke-linecap="round"/>
</svg>
